<svg xmlns="http://www.w3.org/2000/svg" viewBox="0 0 24 24" height="24" width="24"><g><path d="m18.38 13.32 0 -2.64L16.43 12l1.95 1.32z" fill="#000000" stroke-width="1"></path><path d="m12.63 9.42 2.69 1.82 2.57 -1.74 -5.26 -3.57 0 3.49z" fill="#000000" stroke-width="1"></path><path d="m11.38 9.42 0 -3.49L6.11 9.5l2.57 1.74 2.7 -1.82z" fill="#000000" stroke-width="1"></path><path d="M12 10.51 9.8 12l2.2 1.49L14.2 12 12 10.51z" fill="#000000" stroke-width="1"></path><path d="M12 0a12 12 0 1 0 12 12A12 12 0 0 0 12 0Zm7.62 14.5a0.6 0.6 0 0 1 -0.06 0.27l0 0.07a0.57 0.57 0 0 1 -0.13 0.14l-7 4.75a0.53 0.53 0 0 1 -0.62 0L4.65 15a0.57 0.57 0 0 1 -0.13 -0.14l0 -0.07a0.6 0.6 0 0 1 -0.06 -0.27v-5a0.6 0.6 0 0 1 0.06 -0.27l0 -0.07a0.57 0.57 0 0 1 0.1 -0.18l7 -4.75a0.53 0.53 0 0 1 0.62 0l7 4.75a0.57 0.57 0 0 1 0.13 0.14l0 0.07a0.6 0.6 0 0 1 0.06 0.27Z" fill="#000000" stroke-width="1"></path><path d="m12.63 14.58 0 3.49 5.26 -3.57 -2.57 -1.74 -2.69 1.82z" fill="#000000" stroke-width="1"></path><path d="M5.63 13.32 7.57 12l-1.94 -1.32 0 2.64z" fill="#000000" stroke-width="1"></path><path d="m11.38 14.58 -2.7 -1.82 -2.57 1.74 5.27 3.57 0 -3.49z" fill="#000000" stroke-width="1"></path></g></svg>