<svg xmlns="http://www.w3.org/2000/svg" viewBox="0 0 24 24" height="24" width="24"><path d="M10.25 19.5h3.5V21h-3.5zm0 2.75h3.5v1.5h-3.5zM0 6.5v11a2 2 0 0 0 2 2h7.982a4.5 4.5 0 1 1 4.036 0H22a2 2 0 0 0 2 -2v-11zm6 9.25H4.5v-1.5H6zm1.03 -4.159L5.97 10.53l1.06 -1.06 1.061 1.06zM12.75 9.5h-1.5V8h1.5zm3.159 1.03 1.061 -1.06 1.06 1.06 -1.06 1.061zm3.591 5.22H18v-1.5h1.5zM22 0H2a2 2 0 0 0 -2 2v3h24V2a2 2 0 0 0 -2 -2zM3.5 3.5a1 1 0 1 1 1 -1 1 1 0 0 1 -1 1zm3.5 0a1 1 0 1 1 1 -1 1 1 0 0 1 -1 1z" fill="#000000" stroke-width="1"></path></svg>