<svg xmlns="http://www.w3.org/2000/svg" viewBox="0 0 24 24" height="24" width="24"><g><path d="M2.5 8.5h4s0.5 0 0.5 0.5v13s0 0.5 -0.5 0.5h-4s-0.5 0 -0.5 -0.5V9s0 -0.5 0.5 -0.5" fill="#000000" stroke-width="1"></path><path d="M4.48 6.5A2.5 2.5 0 1 0 2 4a2.49 2.49 0 0 0 2.48 2.5Z" fill="#000000" stroke-width="1"></path><path d="M18.5 22.5h3a0.5 0.5 0 0 0 0.5 -0.5v-8.4C22 9.83 19.87 8 16.89 8a4.22 4.22 0 0 0 -3.18 1.28 0.39 0.39 0 0 1 -0.45 0.09A0.4 0.4 0 0 1 13 9a0.5 0.5 0 0 0 -0.5 -0.5h-3A0.5 0.5 0 0 0 9 9v13a0.5 0.5 0 0 0 0.5 0.5h3a0.5 0.5 0 0 0 0.5 -0.5v-7.5a2.5 2.5 0 0 1 5 0V22a0.5 0.5 0 0 0 0.5 0.5Z" fill="#000000" stroke-width="1"></path></g></svg>