<svg xmlns="http://www.w3.org/2000/svg" viewBox="0 0 24 24" height="24" width="24"><path d="M20.25 1.5h-7.5v-1a0.51 0.51 0 0 0 -0.19 -0.39 0.48 0.48 0 0 0 -0.42 -0.1l-9 2a0.5 0.5 0 0 0 -0.39 0.49v19a0.5 0.5 0 0 0 0.39 0.49l9 2a0.52 0.52 0 0 0 0.42 -0.1 0.49 0.49 0 0 0 0.19 -0.39v-1h7.5a1 1 0 0 0 1 -1v-19a1 1 0 0 0 -1 -1Zm-10 11a1.5 1.5 0 1 1 -1.5 -1.5 1.5 1.5 0 0 1 1.5 1.5Zm8.5 8h-5.5a0.5 0.5 0 0 1 -0.5 -0.5V4a0.5 0.5 0 0 1 0.5 -0.5h5.5a0.5 0.5 0 0 1 0.5 0.5v16a0.5 0.5 0 0 1 -0.5 0.5Z" fill="#000000" stroke-width="1"></path></svg>