<svg xmlns="http://www.w3.org/2000/svg" fill="none" viewBox="0 0 14 14" height="14" width="14"><g id="business-user-curriculum"><path id="Subtract" fill="#000" fill-rule="evenodd" d="M1.44 0.44A1.5 1.5 0 0 1 2.5 0h6a0.5 0.5 0 0 1 0.354 0.146l4 4A0.5 0.5 0 0 1 13 4.5v8a1.5 1.5 0 0 1 -1.5 1.5h-9A1.5 1.5 0 0 1 1 12.5v-11c0 -0.398 0.158 -0.78 0.44 -1.06Zm3.515 3.51a1.024 1.024 0 1 0 0 -2.048 1.024 1.024 0 0 0 0 2.048ZM2.876 8.5c0 -0.345 0.279 -0.625 0.624 -0.625h7a0.626 0.626 0 0 1 0.002 1.25h-7a0.626 0.626 0 0 1 -0.626 -0.625Zm0 3c0 -0.345 0.279 -0.625 0.624 -0.625h4a0.626 0.626 0 0 1 0.002 1.25h-4a0.626 0.626 0 0 1 -0.626 -0.625Zm2.08 -6.866c-0.7 0 -1.339 0.263 -1.822 0.696 -0.287 0.257 -0.063 0.67 0.322 0.67h2.998c0.386 0 0.61 -0.413 0.323 -0.67a2.721 2.721 0 0 0 -1.822 -0.696Z" clip-rule="evenodd" stroke-width="1"></path></g></svg>